<?xml version="1.0" encoding="UTF-8"?> <svg xmlns="http://www.w3.org/2000/svg" xmlns:xlink="http://www.w3.org/1999/xlink" version="1.1" id="Layer_1" x="0px" y="0px" viewBox="0 0 706.6 289.1" style="enable-background:new 0 0 706.6 289.1;" xml:space="preserve"> <style type="text/css"> .st0{fill:#F0EFEF;} .st1{fill:#303462;} </style> <g> <polyline class="st0" points="844.9,239.5 858.1,227.9 870.7,217.1 882.7,206.7 894,197 904.8,187.5 915.2,178.7 924.9,170.5 934.1,162.9 943.2,155.7 951.7,149.1 959.9,142.8 968.1,136.8 976,131.1 983.8,126.1 999,116.3 1014.7,107.2 1030.5,98 1047.2,89.2 1064.5,80.7 1082.5,72.5 1101.1,64.9 1120.3,57.7 1139.8,51.4 1158.8,45.4 1167.9,42.9 1177,40.7 1185.5,38.8 1193.7,36.9 1201.9,35.3 1209.5,34 1224.3,31.8 1238.5,30.2 1252.7,29 1266.5,28.4 1280.4,27.7 1293.6,27.7 1306.2,27.7 1317.9,28.4 1328.3,29 1338.1,30.2 1347.2,31.5 1355.7,33.4 1364.6,35.3 1373.1,37.8 1381.2,40.3 1389.1,43.2 1396.7,46.3 1404.2,49.8 1411.2,53.6 1417.8,57.7 1424.1,62.1 1430.1,66.8 1435.8,71.8 1440.8,77.8 1444.9,84.1 1446.8,87.6 1448.4,91.4 1450.6,99.3 1451.5,107.8 1451.8,116.6 1450.9,125.4 1448.7,134.6 1445.8,143.7 1442.1,152.5 1438,161 1433.2,168.9 1428.2,176.2 1423.2,183.1 1417.2,189.7 1410.6,196.6 1407.1,200.1 1403.3,203.6 1398.6,207.4 1396.1,209.6 1393.2,212.1 1390.1,214.6 1386.3,217.4 1382.2,220.6 1377.8,224.4 1372.7,228.2 1367.1,232.3 1360.8,237 1353.8,242.4 1346.3,248 1338.1,254 1328.9,260.9 1318.8,268.2 1331.1,262.2 1344.1,255.9 1369.9,241.7 1382.5,234.5 1395.1,227.2 1406.8,219.7 1418.1,212.7 1428.8,205.8 1438.3,199.5 1447.1,193.5 1455,187.8 1462.2,182.5 1468.9,177.4 1475.2,172.1 1480.8,167 1491.6,156.6 1501.3,145.6 1510.8,133.9 1514.9,128.3 1519,122.3 1522.4,116.3 1525.6,110.6 1528.1,104.9 1530,99.3 1531.6,93.9 1532.5,88.9 1533.2,83.8 1533.2,79.1 1532.8,74.4 1531.9,70 1530.6,65.9 1529.4,61.8 1527.5,57.7 1525.6,53.9 1520.5,47 1514.9,40.7 1508.9,35 1502.3,29.9 1495.3,25.5 1488.1,21.4 1480.2,18 1471.7,15.1 1462.6,12.3 1452.8,9.8 1442.1,7.2 1431,5.4 1419.1,3.8 1406.5,2.5 1393.8,1.3 1380.9,0.6 1368.3,0.3 1356,0 1344.4,0.3 1333,0.6 1322.3,1.3 1301.8,2.8 1291.4,4.1 1280.4,5.4 1274.4,6.3 1267.8,7.2 1260.9,8.2 1253.3,9.4 1244.8,10.7 1236.3,12 1227.1,13.9 1217.4,15.4 1197.5,19.5 1176.7,24.6 1156.2,30.2 1135.8,36.9 1115.9,44.1 1096.7,52 1078.4,59.6 1060.8,67.8 1043.1,76.6 1034.3,81.3 1024.8,86.7 1015,92.3 1004.3,99 993.3,105.9 981.3,113.8 975,118.2 968.4,122.6 961.8,127.6 954.9,133 947.3,138.7 939.7,145 931.8,151.6 923.7,158.8 915.2,166.7 906,174.9 896.9,183.7 887.1,193.5 877.3,203.9 866.9,214.9 855.9,226.9 844.9,239.5 "></polyline> <g> <polyline class="st0" points="1306,220 1306,82.6 1325.6,82.6 1325.6,220 1306,220 "></polyline> <path id="r_2" class="st0" d="M1185.5,82.6V220h20.3V102.7h30.9c6.3,0,12.4,2,17.3,5.9c4.6,3.7,8.7,9.5,8.7,18.6 c0,8-3.2,13.4-7,17c-4.4,4.2-10.4,6.3-16.5,6.3h-25.1v12.7l49.6,56.8h25.8l-43.4-51.9c0,0,36.1-1.3,36.1-41.7 c0-43.7-36.6-43.7-36.6-43.7H1185.5L1185.5,82.6z"></path> <path class="st0" d="M1111.5,82.6l57.7,137.4h-19.5l-18.6-42.9h-50.4L1062,220h-19.5l57.7-137.4 C1100.1,82.6,1111.5,82.6,1111.5,82.6z M1123.4,159.1l-17.6-41.3l-17.7,41.3H1123.4z"></path> </g> <g> <path class="st0" d="M1369.6,82.5l0,13.8h-5.1l0-8.6h-5l0,8.6h-5.1l0-8.6l-12.5,0v-5.3L1369.6,82.5L1369.6,82.5z"></path> <path class="st0" d="M1363,117.9c0,1.9-0.5,3.8-1.4,5.5c-1,1.7-2.3,3.1-3.9,4c-1.7,1-3.4,1.4-5.4,1.4c-1.9,0-3.7-0.5-5.4-1.4 c-1.7-1-3-2.3-3.9-3.9c-0.9-1.7-1.4-3.5-1.4-5.5c0-3,1-5.5,3.1-7.6c2.1-2.1,4.6-3.2,7.6-3.2c3.2,0,5.9,1.2,8,3.5 C1362.1,112.9,1363,115.3,1363,117.9L1363,117.9z M1358.2,118c0-1.6-0.6-2.9-1.7-4s-2.5-1.6-4.3-1.6c-1.8,0-3.2,0.5-4.3,1.6 c-1.1,1.1-1.7,2.4-1.7,4c0,1.6,0.6,3,1.7,4s2.6,1.6,4.3,1.6c1.8,0,3.2-0.5,4.3-1.6C1357.7,121,1358.2,119.7,1358.2,118L1358.2,118 z"></path> <path class="st0" d="M1363.1,150.6c0,1.9-0.5,3.8-1.4,5.5c-1,1.7-2.3,3.1-3.9,4c-1.7,1-3.4,1.4-5.4,1.4c-1.9,0-3.7-0.5-5.4-1.4 s-3-2.3-3.9-3.9c-0.9-1.7-1.4-3.5-1.4-5.5c0-3,1-5.5,3.1-7.6s4.6-3.1,7.6-3.1c3.2,0,5.9,1.2,8,3.5 C1362.2,145.5,1363.1,147.9,1363.1,150.6L1363.1,150.6z M1358.3,150.7c0-1.6-0.6-2.9-1.7-4c-1.1-1.1-2.5-1.6-4.3-1.6 c-1.8,0-3.2,0.5-4.3,1.6c-1.1,1.1-1.7,2.4-1.7,4c0,1.6,0.6,3,1.7,4c1.1,1.1,2.6,1.6,4.3,1.6c1.8,0,3.2-0.5,4.3-1.6 C1357.7,153.7,1358.3,152.3,1358.3,150.7L1358.3,150.7z"></path> <path class="st0" d="M1370.6,188.7v5.2l-28.4,0.1v-5.2h2.2c-1-1-1.7-2-2.1-3c-0.4-1-0.6-2.1-0.6-3.3c0-2.7,1-5,3.1-6.9 c2.1-1.9,4.6-2.9,7.7-2.9c3.2,0,5.8,0.9,7.8,2.8c2,1.9,3,4.2,3,6.9c0,1.2-0.2,2.4-0.7,3.5c-0.5,1.1-1.2,2.1-2.1,3L1370.6,188.7 L1370.6,188.7z M1358.4,183.3c0-1.6-0.6-2.9-1.7-4c-1.1-1.1-2.6-1.6-4.3-1.6c-1.8,0-3.2,0.5-4.4,1.6c-1.1,1.1-1.7,2.4-1.7,4 c0,1.6,0.6,3,1.7,4c1.1,1.1,2.6,1.6,4.4,1.6c1.8,0,3.2-0.5,4.3-1.6C1357.9,186.3,1358.5,184.9,1358.4,183.3L1358.4,183.3z"></path> <path class="st0" d="M1359.9,219.5l-3.2-3.2c1.3-1.3,1.9-2.5,1.9-3.6c0-0.6-0.1-1-0.4-1.4s-0.6-0.5-0.9-0.5 c-0.3,0-0.5,0.1-0.8,0.3c-0.2,0.2-0.6,0.7-0.9,1.6l-0.9,1.9c-1,2-2,3.4-3,4.1c-1,0.8-2.2,1.1-3.6,1.1c-1.8,0-3.3-0.7-4.6-2 c-1.2-1.3-1.8-3.1-1.8-5.4c0-3,1.2-5.4,3.5-7.2l3.4,3.2c-0.7,0.6-1.3,1.3-1.7,2.1c-0.4,0.8-0.7,1.5-0.6,2.2c0,0.7,0.2,1.2,0.5,1.6 c0.3,0.4,0.7,0.6,1.1,0.6c0.8,0,1.6-0.8,2.3-2.3l0.9-1.8c1.7-3.3,3.8-5,6.3-5c1.6,0,3,0.6,4.2,1.9c1.2,1.2,1.7,2.9,1.7,4.8 c0,1.3-0.3,2.6-0.9,3.8S1360.9,218.7,1359.9,219.5L1359.9,219.5z"></path> </g> </g> <g> <polyline class="st1" points="9.1,250 22.4,238.3 35,227.6 47,217.2 58.3,207.4 69,198 79.4,189.1 89.2,180.9 98.3,173.4 107.5,166.1 116,159.5 124.2,153.2 132.4,147.2 140.2,141.6 148.1,136.5 163.3,126.7 179,117.6 194.8,108.5 211.5,99.6 228.8,91.1 246.8,82.9 265.4,75.4 284.6,68.1 304.1,61.8 323,55.8 332.2,53.3 341.3,51.1 349.8,49.2 358,47.3 366.2,45.8 373.8,44.5 388.6,42.3 402.8,40.7 416.9,39.4 430.8,38.8 444.7,38.2 457.9,38.2 470.5,38.2 482.2,38.8 492.6,39.4 502.3,40.7 511.5,42 520,43.9 528.8,45.8 537.3,48.3 545.5,50.8 553.4,53.6 561,56.8 568.5,60.2 575.5,64 582.1,68.1 588.4,72.5 594.4,77.3 600,82.3 605.1,88.3 609.2,94.6 611.1,98.1 612.6,101.8 614.9,109.7 615.8,118.2 616.1,127.1 615.2,135.9 613,145 610.1,154.2 606.3,163 602.2,171.5 597.5,179.4 592.5,186.6 587.4,193.6 581.4,200.2 574.8,207.1 571.4,210.6 567.6,214 562.9,217.8 560.3,220 557.5,222.5 554.3,225.1 550.6,227.9 546.5,231.1 542,234.8 537,238.6 531.3,242.7 525,247.4 518.1,252.8 510.5,258.5 502.3,264.5 493.2,271.4 483.1,278.6 495.4,272.7 508.3,266.4 534.2,252.2 546.8,244.9 559.4,237.7 571,230.1 582.4,223.2 593.1,216.2 602.6,209.9 611.4,204 619.3,198.3 626.5,192.9 633.1,187.9 639.4,182.5 645.1,177.5 655.8,167.1 665.6,156.1 675,144.4 679.1,138.7 683.2,132.7 686.7,126.7 689.9,121.1 692.4,115.4 694.3,109.7 695.8,104.4 696.8,99.3 697.4,94.3 697.4,89.6 697.1,84.8 696.2,80.4 694.9,76.3 693.6,72.2 691.7,68.1 689.9,64.3 684.8,57.4 679.1,51.1 673.2,45.4 666.5,40.4 659.6,36 652.4,31.9 644.5,28.4 636,25.6 626.8,22.7 617,20.2 606.3,17.7 595.3,15.8 583.3,14.2 570.7,13 558.1,11.7 545.2,11.1 532.6,10.8 520.3,10.5 508.6,10.8 497.3,11.1 486.6,11.7 466.1,13.3 455.7,14.6 444.7,15.8 438.7,16.8 432.1,17.7 425.1,18.6 417.6,19.9 409.1,21.2 400.6,22.4 391.4,24.3 381.6,25.9 361.8,30 341,35 320.5,40.7 300,47.3 280.2,54.6 260.9,62.5 242.7,70 225,78.2 207.4,87 198.5,91.8 189.1,97.1 179.3,102.8 168.6,109.4 157.6,116.3 145.6,124.2 139.3,128.6 132.7,133 126.1,138.1 119.1,143.4 111.6,149.1 104,155.4 96.1,162 87.9,169.3 79.4,177.2 70.3,185.4 61.1,194.2 51.4,204 41.6,214.4 31.2,225.4 20.2,237.4 9.1,250 "></polyline> <g> <polyline class="st1" points="470.3,230.5 470.3,93.1 489.8,93.1 489.8,230.5 470.3,230.5 "></polyline> <path id="r_2-2" class="st1" d="M349.8,93.1v137.3h20.4V113.2H401c6.3,0,12.4,2,17.3,5.9c4.6,3.7,8.7,9.5,8.7,18.6 c0,8-3.2,13.4-7,17c-4.4,4.2-10.4,6.3-16.5,6.3h-25.1v12.7l49.6,56.8h25.8l-43.4-51.9c0,0,36-1.3,36-41.7 c0-43.7-36.5-43.7-36.5-43.7H349.8L349.8,93.1z"></path> <path class="st1" d="M275.7,93l57.7,137.4h-19.5l-18.6-42.9h-50.4l-18.6,42.9h-19.5L264.4,93C264.4,93,275.7,93,275.7,93z M287.7,169.6l-17.6-41.3l-17.6,41.3H287.7z"></path> </g> <g> <path class="st1" d="M533.9,93l0,13.8h-5.1l0-8.6h-5l0,8.6h-5.1l0-8.6l-12.5,0V93L533.9,93L533.9,93z"></path> <path class="st1" d="M527.3,128.4c0,1.9-0.5,3.8-1.4,5.5c-1,1.7-2.3,3.1-3.9,4c-1.6,1-3.4,1.4-5.4,1.4c-1.9,0-3.7-0.5-5.4-1.4 c-1.7-1-3-2.3-4-3.9c-1-1.7-1.4-3.5-1.4-5.5c0-3,1-5.5,3.1-7.6c2.1-2.1,4.6-3.2,7.6-3.2c3.2,0,5.9,1.2,8,3.5 C526.4,123.3,527.3,125.7,527.3,128.4L527.3,128.4z M522.5,128.5c0-1.6-0.6-2.9-1.7-4c-1.1-1.1-2.5-1.6-4.3-1.6 c-1.8,0-3.2,0.5-4.3,1.6c-1.1,1.1-1.6,2.4-1.6,4c0,1.6,0.6,3,1.7,4s2.6,1.6,4.3,1.6c1.8,0,3.2-0.5,4.3-1.6 C521.9,131.5,522.4,130.2,522.5,128.5L522.5,128.5z"></path> <path class="st1" d="M527.4,161c0,1.9-0.5,3.8-1.4,5.5c-1,1.7-2.3,3.1-3.9,4c-1.7,1-3.4,1.4-5.4,1.4c-1.9,0-3.7-0.5-5.4-1.4 c-1.7-1-3-2.3-4-3.9c-1-1.7-1.4-3.5-1.4-5.5c0-3,1-5.5,3.1-7.6s4.6-3.1,7.6-3.1c3.2,0,5.9,1.2,8,3.5 C526.4,155.9,527.4,158.3,527.4,161L527.4,161z M522.5,161.1c0-1.6-0.6-2.9-1.7-4c-1.1-1.1-2.5-1.6-4.3-1.6 c-1.8,0-3.2,0.5-4.3,1.6c-1.1,1.1-1.7,2.4-1.7,4c0,1.6,0.6,3,1.7,4c1.1,1.1,2.6,1.6,4.3,1.6c1.8,0,3.2-0.5,4.3-1.6 C522,164.1,522.5,162.8,522.5,161.1L522.5,161.1z"></path> <path class="st1" d="M534.8,199.1v5.2l-28.4,0.1v-5.2h2.1c-1-1-1.6-2-2.1-3s-0.6-2.1-0.6-3.3c0-2.7,1-5,3.1-6.9 c2-1.9,4.6-2.9,7.6-2.9c3.2,0,5.8,0.9,7.8,2.8c2,1.9,3,4.2,3,6.9c0,1.2-0.2,2.4-0.7,3.5c-0.5,1.1-1.2,2.1-2.1,3L534.8,199.1 L534.8,199.1z M522.7,193.7c0-1.6-0.6-2.9-1.7-4c-1.1-1.1-2.6-1.6-4.3-1.6c-1.8,0-3.2,0.5-4.4,1.6c-1.1,1.1-1.7,2.4-1.7,4 c0,1.6,0.6,3,1.7,4c1.1,1.1,2.6,1.6,4.4,1.6c1.8,0,3.2-0.5,4.3-1.6C522.2,196.7,522.7,195.4,522.7,193.7L522.7,193.7z"></path> <path class="st1" d="M524.1,229.9l-3.2-3.2c1.3-1.3,1.9-2.5,1.9-3.6c0-0.6-0.1-1-0.4-1.4s-0.5-0.5-0.9-0.5c-0.3,0-0.5,0.1-0.8,0.3 c-0.2,0.2-0.5,0.7-1,1.6l-0.9,1.9c-1,2-2,3.4-3,4.1c-1,0.8-2.2,1.1-3.6,1.1c-1.8,0-3.3-0.7-4.6-2s-1.8-3.1-1.8-5.4 c0-3,1.2-5.4,3.5-7.2l3.5,3.2c-0.7,0.6-1.3,1.3-1.7,2.1c-0.4,0.8-0.6,1.5-0.6,2.2c0,0.7,0.2,1.2,0.5,1.6c0.3,0.4,0.7,0.6,1.1,0.6 c0.8,0,1.6-0.8,2.3-2.3l0.9-1.8c1.7-3.3,3.8-5,6.3-5c1.6,0,3,0.6,4.2,1.9c1.2,1.2,1.7,2.9,1.7,4.8c0,1.3-0.3,2.6-0.9,3.8 S525.2,229.1,524.1,229.9L524.1,229.9z"></path> </g> </g> </svg>
